<svg width="400" height="200" viewBox="0 0 400 200" fill="none" xmlns="http://www.w3.org/2000/svg">
<path fill-rule="evenodd" clip-rule="evenodd" d="M140.784 170.373H259.198C260.147 170.368 261.055 169.989 261.724 169.316C262.393 168.644 262.768 167.734 262.768 166.786C262.768 165.837 262.393 164.927 261.724 164.255C261.055 163.583 260.147 163.203 259.198 163.198H140.784C139.835 163.203 138.927 163.583 138.258 164.255C137.589 164.927 137.214 165.837 137.214 166.786C137.214 167.734 137.589 168.644 138.258 169.316C138.927 169.989 139.835 170.368 140.784 170.373Z" fill="#E3000F"/>
<path d="M44.9863 59.5773H30.2614V134.517H44.9863V59.5773Z" fill="#000003"/>
<path fill-rule="evenodd" clip-rule="evenodd" d="M69.636 107.801C69.9423 110.112 70.7705 112.324 72.0579 114.269C73.3453 116.213 75.0581 117.839 77.0668 119.024C81.9967 122.002 87.694 123.463 93.4487 123.226C98.9016 123.428 104.28 121.91 108.823 118.887C110.674 117.736 112.201 116.134 113.262 114.231C114.323 112.327 114.882 110.185 114.887 108.006C114.914 106.211 114.516 104.435 113.726 102.823C112.937 101.211 111.778 99.8088 110.343 98.7299C107.354 96.3384 102.571 94.3739 95.9598 92.8023L83.1993 89.7104C74.2026 87.5922 67.5975 84.3124 63.3838 79.871C59.1702 75.4296 57.0577 69.559 57.0463 62.2592C56.9113 58.1754 57.7375 54.117 59.4585 50.411C61.1794 46.7051 63.7469 43.4553 66.954 40.9234C73.5933 35.5027 82.3338 32.7923 93.1753 32.7923C103.277 32.7923 111.647 35.4571 118.286 40.7868C121.467 43.2056 124.073 46.2976 125.919 49.8414C127.764 53.3852 128.804 57.2931 128.963 61.2855H113.947C113.641 59.1146 112.892 57.0299 111.746 55.1609C110.6 53.2919 109.081 51.6786 107.285 50.4212C102.901 47.784 97.8816 46.3906 92.7654 46.3906C87.6492 46.3906 82.6296 47.784 78.2454 50.4212C76.494 51.6009 75.0666 53.2011 74.0937 55.0752C73.1208 56.9494 72.6335 59.0377 72.6766 61.1489C72.6528 62.8086 73.0264 64.45 73.7664 65.9358C74.5064 67.4217 75.5912 68.7089 76.9301 69.69C79.7316 71.8936 84.3609 73.7385 90.8351 75.2588L101.768 77.9407C112.017 80.3322 119.362 83.7032 123.804 88.0535C128.245 92.4037 130.489 98.3484 130.534 105.887C130.717 110.189 129.884 114.473 128.103 118.394C126.323 122.314 123.644 125.76 120.285 128.453C113.452 134.01 104.142 136.783 92.3554 136.772C81.343 136.772 72.4204 134.136 65.5875 128.863C62.257 126.393 59.5251 123.204 57.5941 119.535C55.6632 115.865 54.5827 111.808 54.4327 107.664L69.636 107.801Z" fill="#000003"/>
<path fill-rule="evenodd" clip-rule="evenodd" d="M162.41 41.4018V59.919H179.202V72.372H162.41V110.91C162.41 114.804 163.258 117.651 164.955 119.451C166.652 121.25 169.34 122.144 173.018 122.133C174.385 122.133 176.212 122.03 178.518 121.791V134.124C175.91 134.614 173.263 134.871 170.609 134.893C162.387 134.893 156.488 133.333 152.912 130.213C149.336 127.092 147.571 121.905 147.617 114.651V72.372H135.3V59.919H147.617V41.4018H162.41Z" fill="#000003"/>
<path fill-rule="evenodd" clip-rule="evenodd" d="M234.463 116C237.948 111.513 239.69 105.181 239.69 97.0045C239.69 88.8278 237.948 82.496 234.463 78.009C232.608 75.8903 230.322 74.1925 227.757 73.0292C225.192 71.866 222.409 71.2642 219.593 71.2642C216.777 71.2642 213.993 71.866 211.429 73.0292C208.864 74.1925 206.578 75.8903 204.723 78.009C201.238 82.496 199.496 88.8278 199.496 97.0045C199.496 105.181 201.238 111.536 204.723 116.068C206.572 118.197 208.856 119.904 211.421 121.074C213.987 122.244 216.773 122.849 219.593 122.849C222.412 122.849 225.199 122.244 227.764 121.074C230.33 119.904 232.614 118.197 234.463 116.068V116ZM193.653 125.583C187.367 118.648 184.224 109.127 184.224 97.0216C184.224 84.916 187.39 75.4182 193.722 68.5284C200.008 61.6158 208.635 58.1537 219.601 58.1423C230.568 58.1309 239.166 61.593 245.396 68.5284C251.739 75.4638 254.905 84.9615 254.893 97.0216C254.882 109.082 251.739 118.602 245.464 125.583C239.178 132.507 230.557 135.969 219.601 135.969C208.646 135.969 199.997 132.507 193.653 125.583Z" fill="#000003"/>
<path fill-rule="evenodd" clip-rule="evenodd" d="M262.768 59.5602H276.981V71.0566H278.091C279.249 67.1971 281.832 63.9233 285.317 61.9005C289.193 59.4886 293.684 58.2488 298.248 58.3303C300.446 58.2692 302.643 58.4757 304.791 58.9452V73.5335C302.119 72.8194 299.354 72.5198 296.591 72.6452C291.575 72.4396 286.675 74.1913 282.925 77.5308C281.157 79.1327 279.759 81.1014 278.829 83.2995C277.9 85.4976 277.461 87.872 277.545 90.2571V134.5H262.751L262.768 59.5602Z" fill="#000003"/>
<path fill-rule="evenodd" clip-rule="evenodd" d="M327.988 76.0446C324.337 79.8539 322.225 84.8804 322.061 90.1546H359.915C360.002 84.9624 358.137 79.9268 354.688 76.0446C352.981 74.2805 350.921 72.8968 348.643 71.9842C346.364 71.0716 343.919 70.6507 341.466 70.7491C338.978 70.6691 336.499 71.0975 334.182 72.008C331.864 72.9185 329.757 74.292 327.988 76.0446ZM374.111 114.309C372.565 120.824 368.602 126.508 363.024 130.213C356.637 134.242 349.184 136.254 341.637 135.986C330.898 135.986 322.454 132.524 316.304 125.6C310.154 118.676 307.057 109.247 307.011 97.3121C307.011 85.3431 310.132 75.8226 316.372 68.7505C322.613 61.6784 331.012 58.1481 341.569 58.1595C351.966 58.1595 360.154 61.5076 366.133 68.2038C372.112 74.9001 375.067 84.1473 374.999 95.9455V101.07H322.044V101.89C322.283 108.507 324.19 113.734 327.766 117.572C329.586 119.503 331.8 121.02 334.259 122.019C336.717 123.018 339.362 123.477 342.013 123.363C351.055 123.363 356.994 120.333 359.83 114.275L374.111 114.309Z" fill="#000003"/>
<path fill-rule="evenodd" clip-rule="evenodd" d="M37.6409 29C40.1411 29 42.585 29.7414 44.6638 31.1304C46.7426 32.5194 48.3628 34.4936 49.3196 36.8034C50.2763 39.1133 50.5266 41.655 50.0389 44.1071C49.5511 46.5591 48.3472 48.8115 46.5794 50.5794C44.8115 52.3472 42.5591 53.5511 40.1071 54.0389C37.655 54.5266 35.1133 54.2763 32.8034 53.3196C30.4936 52.3628 28.5194 50.7426 27.1304 48.6638C25.7414 46.585 25 44.141 25 41.6409C24.9978 39.9802 25.3232 38.3355 25.9577 36.8008C26.5921 35.2661 27.5232 33.8717 28.6975 32.6975C29.8717 31.5232 31.2661 30.5921 32.8008 29.9577C34.3355 29.3232 35.9803 28.9978 37.6409 29ZM37.6409 34.2955C36.1882 34.2955 34.768 34.7263 33.56 35.5334C32.3521 36.3406 31.4106 37.4877 30.8547 38.8299C30.2987 40.1721 30.1533 41.6491 30.4367 43.0739C30.7201 44.4988 31.4197 45.8076 32.4469 46.8349C33.4742 47.8622 34.783 48.5617 36.2079 48.8451C37.6328 49.1286 39.1097 48.9831 40.4519 48.4271C41.7941 47.8712 42.9413 46.9297 43.7484 45.7218C44.5555 44.5139 44.9863 43.0937 44.9863 41.6409C44.9863 39.6928 44.2124 37.8244 42.8349 36.4469C41.4574 35.0694 39.5891 34.2955 37.6409 34.2955Z" fill="#E3000F"/>
<path fill-rule="evenodd" clip-rule="evenodd" d="M37.6409 36.9091C38.0514 36.906 38.4601 36.9636 38.8537 37.0799C38.6255 37.468 38.5074 37.911 38.5121 38.3611C38.5121 39.0316 38.7784 39.6747 39.2526 40.1488C39.7267 40.6229 40.3697 40.8893 41.0403 40.8893C41.4564 40.8904 41.8667 40.7907 42.236 40.5989C42.3197 40.9398 42.3599 41.2899 42.3556 41.6409C42.3556 42.5775 42.0776 43.493 41.5569 44.2715C41.0362 45.05 40.2962 45.6565 39.4306 46.0141C38.565 46.3717 37.6127 46.4645 36.6944 46.2805C35.776 46.0965 34.9329 45.6442 34.2719 44.9807C33.6108 44.3172 33.1615 43.4725 32.9809 42.5535C32.8002 41.6345 32.8963 40.6826 33.2571 39.8183C33.6179 38.954 34.227 38.2162 35.0074 37.6983C35.7878 37.1804 36.7043 36.9057 37.6409 36.9091Z" fill="#E3000F"/>
</svg>
